#!OML:ASF Y:\EmotionMaleHayes\Project 1\Capture day 1\Session 1\Male1.ASF
:FULLY-SPECIFIED
:DEGREES
126
root -39.9735 18.4006 2.41419 -35.536 23.8061 -5.09973
lowerback 10.7652 0.74043 -5.20956
upperback -0.10145 0.235074 -1.66989
thorax -6.17519 0.253732 1.14087
lowerneck -20.0753 5.29006 7.11874
upperneck 27.0016 6.0645 -2.33508
head 12.6197 3.17959 -1.05552
rclavicle 3.81667e-014 -1.59028e-014
rhumerus 0 0 0
rradius 0
rwrist 0
rhand 0 0
rfingers 0
rthumb 0 0
lclavicle 3.81667e-014 -1.59028e-014
lhumerus 0 0 0
lradius 0
lwrist 0
lhand 0 0
lfingers 0
lthumb 0 0
rfemur 0 0 0
rtibia 0
rfoot 0 0
rtoes 0
lfemur -3.93602 6.08284 9.08614
ltibia 52.1131
lfoot 3.20692 7.69397
ltoes 0.730171
127
root -39.8147 18.4453 2.37414 -35.1985 22.0927 -4.88669
lowerback 11.1466 0.799612 -4.08037
upperback -0.0762582 0.40823 -2.10708
thorax -6.36025 0.29964 0.0152467
lowerneck -20.1364 5.62115 8.1514
upperneck 27.434 6.15214 -2.19491
head 12.8542 3.34875 -1.15108
rclavicle -1.35174e-014 -7.95139e-015
rhumerus 0 0 0
rradius 0
rwrist 0
rhand 0 0
rfingers 0
rthumb 0 0
lclavicle -1.35174e-014 -7.95139e-015
lhumerus 0 0 0
lradius 0
lwrist 0
lhand 0 0
lfingers 0
lthumb 0 0
rfemur 0 0 0
rtibia 0
rfoot 0 0
rtoes 0
lfemur -1.96447 5.97615 9.36526
ltibia 50.553
lfoot 4.6016 6.9936
ltoes -1.75666
128
root -39.5955 18.4541 2.36639 -33.8927 22.2169 -0.632973
lowerback 11.9616 1.40212 -6.31259
upperback -0.069619 0.733649 -3.98887
thorax -6.83794 0.511796 -0.799192
lowerneck -20.3295 5.72246 8.88082
upperneck 28.1276 5.82365 -1.50784
head 13.1718 3.38539 -1.05232
rclavicle 5.56597e-014 3.18055e-015
rhumerus 0 0 0
rradius 0
rwrist 0
rhand 0 0
rfingers 0
rthumb 0 0
lclavicle 5.56597e-014 3.18055e-015
lhumerus 0 0 0
lradius 0
lwrist 0
lhand 0 0
lfingers 0
lthumb 0 0
rfemur 0 0 0
rtibia 0
rfoot 0 0
rtoes 0
lfemur 1.46271 5.42601 4.13198
ltibia 47.8754
lfoot 5.85721 7.78975
ltoes 2.70457
129
root -39.4216 18.4567 2.31691 -33.4728 20.4846 -0.0991355
lowerback 12.2977 1.34701 -6.35167
upperback 0.068178 0.642851 -3.78147
thorax -6.87941 0.470003 -0.545121
lowerneck -20.0889 6.06033 9.16705
upperneck 27.9739 6.34841 -1.86517
head 13.117 3.59438 -1.15041
rclavicle 2.70347e-014 4.92986e-014
rhumerus 0 0 0
rradius 0
rwrist 0
rhand 0 0
rfingers 0
rthumb 0 0
lclavicle 2.70347e-014 4.92986e-014
lhumerus 0 0 0
lradius 0
lwrist 0
lhand 0 0
lfingers 0
lthumb 0 0
rfemur 0 0 0
rtibia 0
rfoot 0 0
rtoes 0
lfemur 3.26887 5.35735 3.74917
ltibia 46.3083
lfoot 7.25045 7.31502
ltoes 2.66738
130
root -39.2212 18.4425 2.29449 -32.1127 20.4742 4.18144
lowerback 12.4902 1.63942 -10.3836
upperback 0.331441 0.404032 -4.56615
thorax -6.73632 0.463826 0.897462
lowerneck -20.2022 6.76802 9.89093
upperneck 28.3531 7.28733 -2.35594
head 13.4203 4.01753 -1.27989
rclavicle -3.26007e-014 6.36111e-014
rhumerus 0 0 0
rradius 0
rwrist 0
rhand 0 0
rfingers 0
rthumb 0 0
lclavicle -3.26007e-014 6.36111e-014
lhumerus 0 0 0
lradius 0
lwrist 0
lhand 0 0
lfingers 0
lthumb 0 0
rfemur 0 0 0
rtibia 0
rfoot 0 0
rtoes 0
lfemur 5.98532 5.05065 -1.8111
ltibia 43.8755
lfoot 8.13617 7.28418
ltoes 3.94509
131
root -39.0291 18.4087 2.25083 -31.4055 19.2569 6.03285
lowerback 12.8767 1.67761 -11.6555
upperback 0.344034 0.19187 -4.79806
thorax -6.93205 0.403802 1.37801
lowerneck -20.0367 7.33845 10.4235
upperneck 28.6355 8.04265 -2.58197
head 13.6035 4.37773 -1.31377
rclavicle -1.19271e-014 9.54166e-015
rhumerus 0 0 0
rradius 0
rwrist 0
rhand 0 0
rfingers 0
rthumb 0 0
lclavicle -1.19271e-014 9.54166e-015
lhumerus 0.021779 -31.3386 38.4638
lradius 49.7402
lwrist 12.0552
lhand -11.026 -12.1692
lfingers 7.12502
lthumb 14.9954 17.2678
rfemur 3.61626 -8.19947 12.0715
rtibia 21.5105
rfoot 5.4064 -7.2262
rtoes 14.5688
lfemur 7.91045 5.04371 -4.14704
ltibia 41.6482
lfoot 9.5906 5.87574
ltoes 3.26354
132
root -38.8428 18.3639 2.20679 -30.909 17.3629 6.6176
lowerback 12.7471 1.66166 -11.5802
upperback 0.520713 0.224887 -4.69198
thorax -6.66934 0.400921 1.45216
lowerneck -19.9994 7.72472 10.7079
upperneck 28.6175 8.56304 -2.75202
head 13.6558 4.60791 -1.32782
rclavicle 0 1.35174e-014
rhumerus 0 0 0
rradius 0
rwrist 0
rhand 0 0
rfingers 0
rthumb 0 0
lclavicle 0 1.35174e-014
lhumerus 1.57523 -29.8337 34.6923
lradius 49.8072
lwrist 11.2262
lhand -10.3562 -11.8036
lfingers 7.12502
lthumb 15.6406 17.5841
rfemur 0.544183 -10.1315 12.654
rtibia 21.1347
rfoot 4.93018 -5.62574
rtoes 14.1836
lfemur 9.44987 5.18632 -4.82937
ltibia 39.4889
lfoot 10.8814 4.16503
ltoes 4.40236
133
root -38.6382 18.3061 2.16384 -30.4887 15.1745 7.05317
lowerback 12.6125 1.68301 -11.2178
upperback 0.686771 0.354463 -4.46477
thorax -6.42456 0.439499 1.48027
lowerneck -19.6596 8.34273 11.4325
upperneck 28.5114 9.37421 -3.11296
head 13.676 4.99051 -1.43943
rclavicle -1.11319e-014 7.15625e-015
rhumerus 0 0 0
rradius 0
rwrist 0
rhand 0 0
rfingers 0
rthumb 0 0
lclavicle -1.11319e-014 7.15625e-015
lhumerus 2.9851 -28.7162 30.7545
lradius 49.9265
lwrist 11.1645
lhand -9.88604 -11.6035
lfingers 7.12502
lthumb 16.0934 17.7482
rfemur -2.51082 -12.0009 13.8806
rtibia 20.9058
rfoot 5.08859 -3.03263
rtoes 8.83132
lfemur 11.1767 5.34295 -5.4077
ltibia 37.1243
lfoot 11.7589 3.13859
ltoes 9.32903
134
root -38.4398 18.232 2.12121 -29.9788 13.5541 8.14547
lowerback 12.7503 1.71778 -11.8223
upperback 0.799851 0.300561 -4.4428
thorax -6.37892 0.423529 1.84505
lowerneck -19.2675 8.6867 11.6614
upperneck 28.081 9.96137 -3.53071
head 13.5046 5.21236 -1.54395
rclavicle -1.78906e-014 6.99722e-014
rhumerus 0 0 0
rradius 0
rwrist 0
rhand 0 0
rfingers 0
rthumb 0 0
lclavicle -1.78906e-014 6.99722e-014
lhumerus 4.0846 -27.4094 26.8275
lradius 49.7872
lwrist 11.3487
lhand -9.38507 -11.8332
lfingers 7.12502
lthumb 16.5757 17.4789
rfemur -5.48088 -13.4646 14.4357
rtibia 20.4855
rfoot 4.89263 -1.71534
rtoes 12.2316
lfemur 12.6452 5.34031 -7.11376
ltibia 34.943
lfoot 12.2397 2.64219
ltoes 15.8192
135
root -38.2252 18.1434 2.08628 -29.3538 12.4694 10.567
lowerback 12.8179 1.9102 -13.8194
upperback 1.00385 0.256448 -4.72027
thorax -6.20385 0.434681 2.64643
lowerneck -18.9014 9.03304 11.6141
upperneck 27.8616 10.5686 -3.68792
head 13.3982 5.45319 -1.49654
rclavicle -7.55382e-015 -1.07344e-013
rhumerus 0 0 0
rradius 0
rwrist 0
rhand 0 0
rfingers 0
rthumb 0 0
lclavicle -7.55382e-015 -1.07344e-013
lhumerus 4.81141 -26.4225 22.8248
lradius 50.2664
lwrist 12.286
lhand -9.33669 -11.3937
lfingers 7.12502
lthumb 16.6223 17.9145
rfemur -8.31676 -14.7904 13.3936
rtibia 20.3008
rfoot 4.31237 -0.486675
rtoes 17.3653
lfemur 14.175 5.36028 -10.7743
ltibia 32.7266
lfoot 12.4573 1.1194
ltoes 14.6222
